HIERARCHY
ROOT SpineBase
{
  OFFSET 0.000000 0.000000 0.000000
  CHANNELS 6 Xposition Yposition Zposition Zrotation Xrotation Yrotation
  JOINT SpineMid
  {
    OFFSET 0.000000 27.554491 0.000000
    CHANNELS 3 Zrotation Xrotation Yrotation
    JOINT SpineShoulder
    {
      OFFSET -0.046309 20.741913 -0.692045
      CHANNELS 3 Zrotation Xrotation Yrotation
      JOINT Neck
      {
        OFFSET 0.034580 6.967725 -0.523748
        CHANNELS 3 Zrotation Xrotation Yrotation
        JOINT Head
        {
          OFFSET 3.571988 13.969422 0.819076
          CHANNELS 3 Zrotation Xrotation Yrotation
          End Site
          {
            OFFSET 0 0 0
          }
        }
      }
      JOINT ShoulderLeft
      {
        OFFSET -10.881165 0.924524 -10.455303
        CHANNELS 3 Zrotation Xrotation Yrotation
        JOINT ElbowLeft
        {
          OFFSET -2.964608 -21.069908 -9.496480
          CHANNELS 3 Zrotation Xrotation Yrotation
          JOINT WristLeft
          {
            OFFSET -6.213076 -12.413329 -3.701228
            CHANNELS 3 Zrotation Xrotation Yrotation
            JOINT HandLeft
            {
              OFFSET -2.029393 -2.995813 -1.718441
              CHANNELS 3 Zrotation Xrotation Yrotation
              JOINT HandTipLeft
              {
                OFFSET 0.627997 -3.147410 -2.043587
                CHANNELS 3 Zrotation Xrotation Yrotation
                End Site
                {
                  OFFSET 0 0 0
                }
              }
              JOINT ThumbLeft
              {
                OFFSET -3.558294 2.305160 0.120470
                CHANNELS 3 Zrotation Xrotation Yrotation
                End Site
                {
                  OFFSET 0 0 0
                }
              }
            }
          }
        }
      }
      JOINT ShoulderRight
      {
        OFFSET 15.305791 -3.879394 6.162147
        CHANNELS 3 Zrotation Xrotation Yrotation
        JOINT ElbowRight
        {
          OFFSET 6.217423 -23.673211 -3.068722
          CHANNELS 3 Zrotation Xrotation Yrotation
          JOINT WristRight
          {
            OFFSET 5.789376 -15.025786 -13.098809
            CHANNELS 3 Zrotation Xrotation Yrotation
            JOINT HandRight
            {
              OFFSET 0.516937 1.113980 -1.525009
              CHANNELS 3 Zrotation Xrotation Yrotation
              JOINT HandTipRight
              {
                OFFSET 3.917149 -2.798829 -5.906720
                CHANNELS 3 Zrotation Xrotation Yrotation
                End Site
                {
                  OFFSET 0 0 0
                }
              }
              JOINT ThumbRight
              {
                OFFSET -4.178634 -0.268516 -0.412176
                CHANNELS 3 Zrotation Xrotation Yrotation
                End Site
                {
                  OFFSET 0 0 0
                }
              }
            }
          }
        }
      }
    }
  }
  JOINT HipLeft
  {
    OFFSET -6.000163 1.866723 -7.042179
    CHANNELS 3 Zrotation Xrotation Yrotation
    JOINT KneeLeft
    {
      OFFSET 9.202875 4.759508 -30.261996
      CHANNELS 3 Zrotation Xrotation Yrotation
      JOINT AnkleLeft
      {
        OFFSET 4.336118 -32.846361 -0.467500
        CHANNELS 3 Zrotation Xrotation Yrotation
        JOINT FootLeft
        {
          OFFSET 5.905221 -1.641673 -13.142193
          CHANNELS 3 Zrotation Xrotation Yrotation
          End Site
          {
            OFFSET 0 0 0
          }
        }
      }
    }
  }
  JOINT HipRight
  {
    OFFSET 6.984576 1.266640 0.981718
    CHANNELS 3 Zrotation Xrotation Yrotation
    JOINT KneeRight
    {
      OFFSET 23.726685 1.763403 -15.222918
      CHANNELS 3 Zrotation Xrotation Yrotation
      JOINT AnkleRight
      {
        OFFSET -9.290789 -32.728516 -10.232752
        CHANNELS 3 Zrotation Xrotation Yrotation
        JOINT FootRight
        {
          OFFSET 5.049228 -2.892188 -10.765007
          CHANNELS 3 Zrotation Xrotation Yrotation
          End Site
          {
            OFFSET 0 0 0
          }
        }
      }
    }
  }
}
MOTION
Frames: 5
Frame Time: 0.033333
-59.757195 35.378212 352.429318 -0.000000 0.000000 -31.713921 -0.000000 0.000000 31.713921 -0.000000 0.000000 0.000000 -0.000000 0.000000 0.000000 0.000000 0.000000 0.000000 -0.000000 0.000000 0.000000 -0.000000 0.000000 0.000000 -0.000000 0.000000 0.000000 -0.000000 0.000000 0.000000 0.000000 0.000000 0.000000 0.000000 0.000000 0.000000 -0.000000 0.000000 0.000000 -0.000000 0.000000 0.000000 -0.000000 0.000000 0.000000 -0.000000 0.000000 0.000000 0.000000 0.000000 0.000000 0.000000 0.000000 0.000000 -0.000000 0.000000 31.713921 -0.000000 0.000000 0.000000 -0.000000 0.000000 0.000000 0.000000 0.000000 0.000000 -0.000000 0.000000 31.713921 -0.000000 0.000000 0.000000 -0.000000 0.000000 0.000000 0.000000 0.000000 0.000000
-59.820884 35.337835 352.442222 -0.074777 -0.004110 -31.647285 0.061501 0.042734 31.647259 -0.000000 0.000000 0.000000 -0.000000 0.000000 0.000000 0.000000 0.000000 0.000000 -0.000000 0.000000 0.000000 22.408952 7.705289 -13.145093 -1.792600 -3.795013 -3.917740 -15.215054 3.336463 13.238627 0.000000 0.000000 0.000000 0.000000 0.000000 0.000000 -0.000000 0.000000 0.000000 0.553274 0.749843 -0.195548 -7.779890 -16.464370 -2.872550 6.760615 14.597519 -0.977496 0.000000 0.000000 0.000000 0.000000 0.000000 0.000000 0.061501 0.042734 31.647259 -0.000000 0.000000 0.000000 -0.762395 -2.131740 -1.909757 0.000000 0.000000 0.000000 0.061501 0.042734 31.647259 -0.000000 0.000000 0.000000 -2.672201 -6.009864 -0.908548 0.000000 0.000000 0.000000
-59.865648 35.305176 352.451395 -0.123314 -0.005332 -31.597566 0.102239 0.069152 31.597499 -0.000000 0.000000 0.000000 -0.000000 0.000000 0.000000 0.000000 0.000000 0.000000 -0.000000 0.000000 0.000000 38.166574 9.658277 -23.170037 -0.554834 -6.521290 -7.114049 -28.424768 1.996730 21.225572 0.000000 0.000000 0.000000 0.000000 0.000000 0.000000 -0.000000 0.000000 0.000000 1.006881 1.389415 -0.349741 -14.285364 -27.375477 -6.633070 11.541542 24.176326 -2.786887 0.000000 0.000000 0.000000 0.000000 0.000000 0.000000 0.102239 0.069152 31.597499 -0.000000 0.000000 0.000000 -1.538074 -4.092416 -3.706637 0.000000 0.000000 0.000000 0.102239 0.069152 31.597499 -0.000000 0.000000 0.000000 -5.089265 -11.166906 -1.969128 0.000000 0.000000 0.000000
-59.891489 35.280236 352.456838 -0.145693 -0.003672 -31.564875 0.122215 0.079393 31.564785 -0.000000 0.000000 0.000000 -0.000000 0.000000 0.000000 0.000000 0.000000 0.000000 -0.000000 0.000000 0.000000 47.337761 9.498399 -29.053894 0.855682 -8.104911 -8.966138 -36.337389 0.567439 24.792854 0.000000 0.000000 0.000000 0.000000 0.000000 0.000000 -0.000000 0.000000 0.000000 1.359522 1.919473 -0.459553 -19.580114 -34.170728 -10.357944 14.828149 29.977994 -4.485306 0.000000 0.000000 0.000000 0.000000 0.000000 0.000000 0.122215 0.079393 31.564785 -0.000000 0.000000 0.000000 -2.243177 -5.727419 -5.234449 0.000000 0.000000 0.000000 0.122215 0.079393 31.564785 -0.000000 0.000000 0.000000 -6.887028 -14.794041 -2.919274 0.000000 0.000000 0.000000
-59.898407 35.263015 352.458548 -0.141969 0.000866 -31.549263 0.121438 0.073545 31.549186 -0.000000 0.000000 0.000000 -0.000000 0.000000 0.000000 0.000000 0.000000 0.000000 -0.000000 0.000000 0.000000 52.499775 8.972824 -32.316948 1.685320 -8.922656 -10.061150 -40.385518 -0.031888 26.226968 0.000000 0.000000 0.000000 0.000000 0.000000 0.000000 -0.000000 0.000000 0.000000 1.610249 2.340772 -0.522579 -23.783817 -38.298056 -13.678529 16.996787 33.342008 -5.702950 0.000000 0.000000 0.000000 0.000000 0.000000 0.000000 0.121438 0.073545 31.549186 -0.000000 0.000000 0.000000 -2.779629 -6.891203 -6.329751 0.000000 0.000000 0.000000 0.121438 0.073545 31.549186 -0.000000 0.000000 0.000000 -7.732323 -16.441773 -3.477360 0.000000 0.000000 0.000000
